<svg xmlns="http://www.w3.org/2000/svg" viewBox="0 0 280 280" fill="none" stroke="#C8A57A" stroke-width="1.3" stroke-linecap="round" stroke-linejoin="round">
  
  <path d="M130 50 Q 142 65 132 82 Q 118 98 94 98 Q 70 98 62 82 Q 58 66 72 56 Q 90 46 112 54 Q 128 60 128 72"></path>
  
  <path d="M118 62 Q 124 72 114 80 Q 100 86 88 80 Q 80 72 88 64 Q 100 58 112 64"></path>
  
  <path d="M82 170 Q 68 155 80 138 Q 96 122 120 122 Q 144 122 152 138 Q 158 154 142 164 Q 124 174 102 166 Q 88 160 88 148"></path>
  
  <path d="M96 158 Q 88 148 98 140 Q 112 134 126 140 Q 134 148 126 156 Q 114 162 102 156"></path>
  
  <path d="M110 108 Q 124 112 118 120 Q 106 128 96 124"></path>
  
  <path d="M20 108 Q 32 100 44 108 Q 56 116 68 108"></path>
  
  <path d="M152 108 Q 164 100 176 108 Q 188 116 200 108"></path>
</svg>